<svg width="20" height="14" viewBox="0 0 20 14" fill="none" xmlns="http://www.w3.org/2000/svg">
<path d="M2.84375 13.757C1.96875 12.8658 1.27604 11.8328 0.765625 10.658C0.255208 9.48323 0 8.22339 0 6.87849C0 5.51737 0.255208 4.24943 0.765625 3.07467C1.27604 1.8999 1.96875 0.875013 2.84375 1.33514e-05L4.22917 1.38543C3.5162 2.09839 2.95718 2.92478 2.55208 3.8646C2.14699 4.80441 1.94444 5.80904 1.94444 6.87849C1.94444 7.96413 2.14699 8.97687 2.55208 9.91668C2.95718 10.8565 3.5162 11.6748 4.22917 12.3715L2.84375 13.757ZM5.59028 11.0104C5.07176 10.4757 4.65857 9.85592 4.35069 9.15106C4.04282 8.44619 3.88889 7.68867 3.88889 6.87849C3.88889 6.0521 4.04282 5.28647 4.35069 4.58161C4.65857 3.87675 5.07176 3.26506 5.59028 2.74654L6.97569 4.13196C6.61921 4.48844 6.3397 4.90163 6.13715 5.37154C5.93461 5.84145 5.83333 6.34376 5.83333 6.87849C5.83333 7.41321 5.93461 7.91552 6.13715 8.38543C6.3397 8.85534 6.61921 9.26853 6.97569 9.62501L5.59028 11.0104ZM9.72222 8.82293C9.72222 8.82293 9.58854 8.82293 9.32118 8.82293C9.05382 8.82293 8.72975 8.63254 8.34896 8.25175C7.96817 7.87096 7.77778 7.41321 7.77778 6.87849C7.77778 6.34376 7.96817 5.88601 8.34896 5.50522C8.72975 5.12443 9.1875 4.93404 9.72222 4.93404C10.2569 4.93404 10.7147 5.12443 11.0955 5.50522C11.4763 5.88601 11.6667 6.34376 11.6667 6.87849C11.6667 7.41321 11.4763 7.87096 11.0955 8.25175C10.7147 8.63254 10.2569 8.82293 9.72222 8.82293ZM13.8542 11.0104L12.4688 9.62501C12.8252 9.26853 13.1047 8.85534 13.3073 8.38543C13.5098 7.91552 13.6111 7.41321 13.6111 6.87849C13.6111 6.34376 13.5098 5.84145 13.3073 5.37154C13.1047 4.90163 12.8252 4.48844 12.4688 4.13196L13.8542 2.74654C14.3727 3.26506 14.7859 3.87675 15.0938 4.58161C15.4016 5.28647 15.5556 6.0521 15.5556 6.87849C15.5556 7.68867 15.4016 8.44619 15.0938 9.15106C14.7859 9.85592 14.3727 10.4757 13.8542 11.0104ZM16.6007 13.757L15.2153 12.3715C15.9282 11.6586 16.4873 10.8322 16.8924 9.89237C17.2975 8.95256 17.5 7.94793 17.5 6.87849C17.5 5.79284 17.2975 4.78011 16.8924 3.84029C16.4873 2.90048 15.9282 2.08219 15.2153 1.38543L16.6007 1.33514e-05C17.4757 0.875013 18.1684 1.8999 18.6788 3.07467C19.1892 4.24943 19.4444 5.51737 19.4444 6.87849C19.4444 8.22339 19.1892 9.48323 18.6788 10.658C18.1684 11.8328 17.4757 12.8658 16.6007 13.757Z" fill="#0DCCF2"/>
</svg>
