<svg width="13" height="9" viewBox="0 0 13 9" fill="none" xmlns="http://www.w3.org/2000/svg">
<path d="M6.10675 6.66191C6.10675 6.66191 6.28024 6.66191 6.62721 6.66191C6.97419 6.66191 7.39056 6.41903 7.87632 5.93327C8.36209 5.4475 8.60497 4.85765 8.60497 4.1637C8.60497 3.46975 8.36209 2.87989 7.87632 2.39413C7.39056 1.90836 6.8007 1.66548 6.10675 1.66548C5.4128 1.66548 4.82295 1.90836 4.33718 2.39413C3.85142 2.87989 3.60854 3.46975 3.60854 4.1637C3.60854 4.85765 3.85142 5.4475 4.33718 5.93327C4.82295 6.41903 5.4128 6.66191 6.10675 6.66191ZM6.10675 5.66263C6.10675 5.66263 6.00266 5.66263 5.79447 5.66263C5.58629 5.66263 5.33647 5.5169 5.04501 5.22544C4.75355 4.93398 4.60782 4.58007 4.60782 4.1637C4.60782 3.74733 4.75355 3.39341 5.04501 3.10196C5.33647 2.8105 5.69038 2.66477 6.10675 2.66477C6.52312 2.66477 6.87704 2.8105 7.16849 3.10196C7.45995 3.39341 7.60568 3.74733 7.60568 4.1637C7.60568 4.58007 7.45995 4.93398 7.16849 5.22544C6.87704 5.5169 6.52312 5.66263 6.10675 5.66263ZM6.10675 8.32739C6.10675 8.32739 5.76903 8.32739 5.09359 8.32739C4.41814 8.32739 3.52526 7.95035 2.41494 7.19626C1.30462 6.44216 0.499643 5.43131 0 4.1637C0.499643 2.89608 1.30462 1.88523 2.41494 1.13114C3.52526 0.377049 4.75586 3.8147e-06 6.10675 3.8147e-06C7.45764 3.8147e-06 8.68824 0.377049 9.79856 1.13114C10.9089 1.88523 11.7139 2.89608 12.2135 4.1637C11.7139 5.43131 10.9089 6.44216 9.79856 7.19626C8.68824 7.95035 7.45764 8.32739 6.10675 8.32739ZM6.10675 7.21707C6.10675 7.21707 6.36814 7.21707 6.89091 7.21707C7.41369 7.21707 8.11226 6.94181 8.98664 6.39127C9.86102 5.84074 10.5295 5.09822 10.9922 4.1637C10.5295 3.22918 9.86102 2.48665 8.98664 1.93612C8.11226 1.38559 7.1523 1.11032 6.10675 1.11032C5.0612 1.11032 4.10124 1.38559 3.22686 1.93612C2.35249 2.48665 1.68398 3.22918 1.22135 4.1637C1.68398 5.09822 2.35249 5.84074 3.22686 6.39127C4.10124 6.94181 5.0612 7.21707 6.10675 7.21707Z" fill="#0DCCF2"/>
</svg>
