<svg width="9" height="12" viewBox="0 0 9 12" fill="none" xmlns="http://www.w3.org/2000/svg">
<path d="M2.22064 8.88263H6.66191V7.77232H2.22064V8.88263ZM2.22064 6.662H6.66191V5.55168H2.22064V6.662ZM1.11032 11.1033C0.804981 11.1033 0.543594 10.9946 0.326156 10.7771C0.108719 10.5597 0 10.2983 0 9.99295V1.1104C0 0.805066 0.108719 0.543679 0.326156 0.326241C0.543594 0.108804 0.804981 8.58307e-05 1.11032 8.58307e-05H5.55159L8.88255 3.33104V9.99295C8.88255 10.2983 8.77383 10.5597 8.55639 10.7771C8.33896 10.9946 8.07757 11.1033 7.77223 11.1033H1.11032ZM4.99643 3.8862V1.1104H1.11032V9.99295H7.77223V3.8862H4.99643ZM1.11032 1.1104V3.8862V9.99295V1.1104Z" fill="#F1F5F9"/>
</svg>
