<svg width="12" height="9" viewBox="0 0 12 9" fill="none" xmlns="http://www.w3.org/2000/svg">
<path d="M1.11111 8.88892C0.805556 8.88892 0.543982 8.78012 0.326389 8.56253C0.108796 8.34493 0 8.08336 0 7.7778V1.11114C0 0.805582 0.108796 0.544008 0.326389 0.326415C0.543982 0.108823 0.805556 2.67029e-05 1.11111 2.67029e-05H10C10.3056 2.67029e-05 10.5671 0.108823 10.7847 0.326415C11.0023 0.544008 11.1111 0.805582 11.1111 1.11114V7.7778C11.1111 8.08336 11.0023 8.34493 10.7847 8.56253C10.5671 8.78012 10.3056 8.88892 10 8.88892H1.11111ZM1.11111 7.7778H10V2.22225H1.11111V7.7778ZM3.05556 7.22225L2.27778 6.44447L3.70833 5.00003L2.26389 3.55558L3.05556 2.7778L5.27778 5.00003L3.05556 7.22225ZM5.55556 7.22225V6.11114H8.88889V7.22225H5.55556Z" fill="#F1F5F9"/>
</svg>
