<svg width="25" height="28" viewBox="0 0 25 28" fill="none" xmlns="http://www.w3.org/2000/svg">
          <path d="M4.23047 20.7969V18.8533H6.1741V12.0505C6.1741 10.7062 6.57903 9.51166 7.38888 8.46695C8.19872 7.42225 9.25153 6.73793 10.5473 6.41399V5.73372C10.5473 5.32879 10.689 4.98461 10.9725 4.70116C11.2559 4.41772 11.6001 4.27599 12.005 4.27599C12.4099 4.27599 12.7541 4.41772 13.0376 4.70116C13.321 4.98461 13.4627 5.32879 13.4627 5.73372V6.41399C14.7585 6.73793 15.8113 7.42225 16.6211 8.46695C17.431 9.51166 17.8359 10.7062 17.8359 12.0505V18.8533H19.7795V20.7969H4.23047ZM12.005 23.7123C11.4705 23.7123 11.0129 23.522 10.6323 23.1414C10.2517 22.7608 10.0614 22.3032 10.0614 21.7687H13.9486C13.9486 22.3032 13.7583 22.7608 13.3777 23.1414C12.9971 23.522 12.5395 23.7123 12.005 23.7123ZM8.11774 18.8533H15.8923V12.0505C15.8923 10.9815 15.5117 10.0664 14.7504 9.30515C13.9891 8.54389 13.074 8.16326 12.005 8.16326C10.936 8.16326 10.0209 8.54389 9.25962 9.30515C8.49837 10.0664 8.11774 10.9815 8.11774 12.0505V18.8533Z" fill="var(--color-azure-65, #94A3B8)"></path>
          </svg>