<svg width="18" height="20" viewBox="0 0 18 20" fill="none" xmlns="http://www.w3.org/2000/svg">
<path d="M1.94444 19.4443C1.40972 19.4443 0.951968 19.2539 0.571181 18.8732C0.190394 18.4924 0 18.0346 0 17.4999V3.88878C0 3.35406 0.190394 2.8963 0.571181 2.51552C0.951968 2.13473 1.40972 1.94434 1.94444 1.94434H6.02778C6.23843 1.361 6.59086 0.891094 7.08507 0.534613C7.57928 0.178131 8.13426 -0.000108719 8.75 -0.000108719C9.36574 -0.000108719 9.92072 0.178131 10.4149 0.534613C10.9091 0.891094 11.2616 1.361 11.4722 1.94434H15.5556C16.0903 1.94434 16.548 2.13473 16.9288 2.51552C17.3096 2.8963 17.5 3.35406 17.5 3.88878V17.4999C17.5 18.0346 17.3096 18.4924 16.9288 18.8732C16.548 19.2539 16.0903 19.4443 15.5556 19.4443H1.94444ZM1.94444 17.4999H15.5556V3.88878H1.94444V17.4999ZM3.88889 15.5554H10.6944V13.611H3.88889V15.5554ZM3.88889 11.6666H13.6111V9.72211H3.88889V11.6666ZM3.88889 7.77767H13.6111V5.83322H3.88889V7.77767ZM8.75 3.15961C8.75 3.15961 8.80266 3.15961 8.90799 3.15961C9.01331 3.15961 9.13484 3.09075 9.27257 2.95302C9.4103 2.81528 9.47917 2.64109 9.47917 2.43045C9.47917 2.2198 9.4103 2.04561 9.27257 1.90788C9.13484 1.77015 8.96065 1.70128 8.75 1.70128C8.53935 1.70128 8.36516 1.77015 8.22743 1.90788C8.0897 2.04561 8.02083 2.2198 8.02083 2.43045C8.02083 2.64109 8.0897 2.81528 8.22743 2.95302C8.36516 3.09075 8.53935 3.15961 8.75 3.15961Z" fill="#0DCCF2"/>
</svg>
